<svg width="20" height="16" viewBox="0 0 20 16" fill="none" xmlns="http://www.w3.org/2000/svg">
<path d="M19.13 4.81214L10.8488 2.13464C10.2922 1.95496 9.70813 1.95496 9.15156 2.13464L0.870313 4.81214C0.341875 4.98308 0 5.44933 0 5.99996C0 6.55058 0.341875 7.01683 0.87 7.18777L1.79844 7.48777C1.69531 7.68089 1.61906 7.88871 1.56938 8.10652C1.23531 8.26839 1 8.60371 1 8.99996C1 9.39777 1.23656 9.73496 1.57281 9.89589L1.00875 13.3915C0.958437 13.7037 1.13094 14 1.36312 14H2.63656C2.86875 14 3.04156 13.7037 2.99094 13.3915L2.42719 9.89589C2.76344 9.73496 3 9.39777 3 8.99996C3 8.66871 2.82844 8.38933 2.58031 8.20714C2.62687 8.06152 2.69906 7.93027 2.78562 7.80683L4.45656 8.34714L4 12C4 13.1046 6.68625 14 10 14C13.3138 14 16 13.1046 16 12L15.5434 8.34714L19.13 7.18746C19.6581 7.01683 20 6.55058 20 5.99996C20 5.44933 19.6581 4.98308 19.13 4.81214ZM14.9838 11.9331C14.6475 12.2871 12.9388 13 10 13C7.06125 13 5.3525 12.2871 5.01625 11.9331L5.42531 8.66027L9.15156 9.86496C9.23281 9.89121 9.95531 10.1534 10.8488 9.86496L14.575 8.66027L14.9838 11.9331ZM18.8213 6.23683L10.54 8.91433C10.1866 9.02871 9.81344 9.02871 9.46 8.91433L3.97031 7.13933L10.0919 5.99121C10.3634 5.94058 10.5422 5.67933 10.4913 5.40777C10.4406 5.13589 10.1737 4.95808 9.90812 5.00871L3.54 6.20246C3.1525 6.27496 2.80531 6.44152 2.50625 6.66589L1.17844 6.23652C0.933125 6.15683 0.945312 5.83839 1.17844 5.76308L9.45969 3.08558C9.93156 2.93308 10.3297 3.01777 10.5397 3.08558L18.8209 5.76308C19.0519 5.83777 19.0681 6.15683 18.8213 6.23683Z" fill="black"/>
</svg>
