<svg width="19" height="17" viewBox="0 0 19 17" fill="none" xmlns="http://www.w3.org/2000/svg">
<path d="M18.9171 7.30103L10.2457 0.264961C10.035 0.0927652 9.77185 -0.0012207 9.50042 -0.0012207C9.229 -0.0012207 8.96583 0.0927652 8.7551 0.264961L0.0837115 7.30103C0.060804 7.31945 0.0417585 7.34226 0.0276807 7.36814C0.0136029 7.39402 0.00477327 7.42246 0.00170444 7.45181C-0.00136439 7.48115 0.00138873 7.51082 0.00980395 7.53909C0.0182192 7.56735 0.0321288 7.59365 0.0507254 7.61646L0.519128 8.19752C0.537742 8.22065 0.560703 8.23985 0.586698 8.25404C0.612693 8.26823 0.641212 8.27712 0.670623 8.2802C0.700034 8.28329 0.729761 8.2805 0.758103 8.27201C0.786444 8.26352 0.812845 8.24949 0.835795 8.23072L2.11137 7.19512V16.4681C2.11137 16.609 2.16697 16.7441 2.26595 16.8437C2.36493 16.9434 2.49917 16.9993 2.63915 16.9993H16.3614C16.5013 16.9993 16.6356 16.9434 16.7346 16.8437C16.8335 16.7441 16.8891 16.609 16.8891 16.4681V7.19844L18.169 8.23736C18.2154 8.27519 18.2748 8.29293 18.3342 8.28671C18.3935 8.28048 18.448 8.25079 18.4857 8.20416L18.9538 7.6231C18.9894 7.57478 19.0055 7.5146 18.9987 7.45479C18.9919 7.39497 18.9627 7.34 18.9171 7.30103ZM7.91692 15.9368V10.6243H11.0836V15.9368H7.91692ZM15.8336 15.9368H12.1391V10.0931C12.1391 9.95219 12.0835 9.81706 11.9846 9.71743C11.8856 9.61781 11.7513 9.56184 11.6114 9.56184H7.38915C7.24917 9.56184 7.11493 9.61781 7.01595 9.71743C6.91697 9.81706 6.86137 9.95219 6.86137 10.0931V15.9368H3.16692V6.33848L9.35875 1.31152C9.39783 1.27932 9.44678 1.26172 9.49729 1.26172C9.5478 1.26172 9.59675 1.27932 9.63583 1.31152L15.8336 6.34113V15.9368Z" fill="black"/>
</svg>
